PathFileType	4	(X/Y/Z)	Kaydara																																																																																																																									
DataRate	CameraRate	NumFrames	NumMarkers	Units	OrigDataRate	OrigDataStartFrame	OrigNumFrames																																																																																																																					
30	30	6	41	mm	30	63	125																																																																																																																					
Frame#	Time	EMLA_LFHD			EMLA_RFHD			EMLA_LBHD			EMLA_RBHD			EMLA_LFTShould			EMLA_RFTShould			EMLA_LRRShould			EMLA_RRRShould			EMLA_T10			EMLA_STRN			EMLA_TRUN			EMLA_LSHO			EMLA_LUPA			EMLA_LELB			EMLA_LFRM			EMLA_LWRA			EMLA_LWRB			EMLA_LFIN			EMLA_RSHO			EMLA_RUPA			EMLA_RELB			EMLA_RFRM			EMLA_RWRA			EMLA_RWRB			EMLA_RFIN			EMLA_LFWT			EMLA_RFWT			EMLA_LBWT			EMLA_RBWT			EMLA_LTHI			EMLA_LKNE			EMLA_LSHN			EMLA_LANK			EMLA_LHEE			EMLA_LTOE			EMLA_RTHI			EMLA_RKNE			EMLA_RSHN			EMLA_RANK			EMLA_RHEE			EMLA_RTOE		
		X1	Y1	Z1	X2	Y2	Z2	X3	Y3	Z3	X4	Y4	Z4	X5	Y5	Z5	X6	Y6	Z6	X7	Y7	Z7	X8	Y8	Z8	X9	Y9	Z9	X10	Y10	Z10	X11	Y11	Z11	X12	Y12	Z12	X13	Y13	Z13	X14	Y14	Z14	X15	Y15	Z15	X16	Y16	Z16	X17	Y17	Z17	X18	Y18	Z18	X19	Y19	Z19	X20	Y20	Z20	X21	Y21	Z21	X22	Y22	Z22	X23	Y23	Z23	X24	Y24	Z24	X25	Y25	Z25	X26	Y26	Z26	X27	Y27	Z27	X28	Y28	Z28	X29	Y29	Z29	X30	Y30	Z30	X31	Y31	Z31	X32	Y32	Z32	X33	Y33	Z33	X34	Y34	Z34	X35	Y35	Z35	X36	Y36	Z36	X37	Y37	Z37	X38	Y38	Z38	X39	Y39	Z39	X40	Y40	Z40	X41	Y41	Z41
																																																																																																																												
63	2.077	302.00783	1544.62936	-1543.3754	133.14145	1516.75415	-1551.70639	316.70679	1578.8533	-1689.28436	125.02476	1549.90463	-1699.50287	305.33461	1321.86539	-1638.3223	159.99511	1323.51044	-1647.21436	320.91595	1398.62854	-1773.70316	161.84017	1398.78799	-1787.14844	249.4833	1242.19437	-1863.58002	227.50067	1249.94843	-1620.13931	219.96605	1145.04692	-1625.88577	431.54171	1343.62244	-1665.17288	479.86176	1163.16772	-1650.7103	482.09686	1019.21822	-1615.85281	444.83353	886.83105	-1578.23532	297.44085	790.71312	-1512.29355	368.80569	745.38399	-1532.9628	327.88139	733.22174	-1475.06088	46.67901	1369.18182	-1715.05722	-33.39371	1195.31456	-1777.07703	-68.89377	1071.71547	-1840.0528	-85.51388	978.62389	-1878.21457	-52.61021	782.94098	-1835.82031	-96.58327	796.95061	-1909.11652	-113.77646	748.51379	-1868.53592	331.55724	915.19241	-1741.5419	99.40115	933.64998	-1724.06403	276.82142	979.73694	-1934.01703	102.58529	974.96544	-1906.08887	313.43544	709.61967	-1995.71838	327.65869	501.99028	-2016.85928	307.75881	320.54134	-2048.51837	296.36307	166.68594	-2159.28818	219.66846	89.92686	-2223.88336	308.36992	74.56002	-2046.39481	45.86174	661.29807	-1790.04257	41.93115	524.8349	-1609.92233	95.32168	297.52573	-1627.58926	60.4682	148.49524	-1732.07397	122.32447	99.71	-1789.50439	73.53134	90.89598	-1594.58755
64	2.11	292.39965	1520.78003	-1488.91037	124.85456	1489.86176	-1503.74451	311.42384	1560.0589	-1633.26324	120.71483	1527.7243	-1650.89127	301.13958	1299.19907	-1594.05136	156.29087	1300.9198	-1605.95078	319.71497	1384.40094	-1724.13879	160.17319	1384.23386	-1740.88013	251.30125	1232.86972	-1824.54025	223.21075	1226.24596	-1581.55289	217.19875	1121.85036	-1593.28186	424.69704	1323.47839	-1614.2691	475.28572	1144.87328	-1599.8056	478.73604	1001.73264	-1562.82318	431.67068	871.82388	-1518.61679	276.2318	790.89706	-1452.63763	344.27341	739.15016	-1467.55539	302.69629	736.00967	-1409.77386	44.72005	1349.75586	-1672.061	-39.56094	1180.46646	-1741.40518	-80.0302	1062.94327	-1811.10672	-98.76818	969.34441	-1850.9343	-62.53809	773.38104	-1813.90305	-111.38789	788.7001	-1884.07562	-124.13767	737.61063	-1844.80927	331.50673	901.36917	-1711.11252	97.52905	920.66872	-1693.94012	279.75189	965.01137	-1904.39941	104.64811	960.04898	-1878.18436	311.93014	704.07761	-1971.4769	328.35766	499.29497	-2003.9389	309.26367	319.25974	-2042.90985	297.07453	170.58331	-2159.06326	220.98591	95.62059	-2225.16724	308.22001	74.19211	-2048.35861	46.83375	656.39481	-1744.90326	34.82244	530.46379	-1556.48804	88.59428	303.08781	-1543.07037	56.31099	141.20443	-1626.31409	119.15556	86.18943	-1676.98212	68.84811	99.52536	-1482.7034
65	2.143	279.51046	1497.75818	-1431.88248	113.39968	1465.42694	-1455.66406	305.38996	1540.48126	-1574.20883	115.95674	1506.77902	-1602.1347	295.39392	1277.3748	-1546.21033	149.85529	1277.96776	-1561.97083	316.1441	1369.30496	-1672.26181	156.97058	1369.02359	-1692.98935	251.34283	1221.90895	-1781.77231	217.23068	1203.44734	-1538.97247	212.33248	1099.47548	-1554.76059	416.8203	1304.16153	-1561.52924	470.42728	1127.1315	-1546.33209	477.29095	983.9225	-1508.26126	422.2739	858.47565	-1460.35294	260.32999	791.39793	-1396.6127	325.35152	734.66011	-1405.99182	282.78162	739.2514	-1349.34402	40.57898	1331.72775	-1627.8627	-49.07769	1167.9229	-1704.0094	-94.94406	1054.93927	-1776.59058	-115.47174	959.84734	-1815.02914	-73.17024	765.14122	-1780.17761	-127.9227	779.17183	-1846.59164	-135.87689	727.27829	-1806.82938	330.85663	888.91876	-1675.62546	97.2908	907.26707	-1655.95444	278.54872	950.81024	-1870.5481	103.01053	945.46631	-1841.81412	313.35176	700.93414	-1941.14517	332.21111	496.92158	-1982.03552	313.1086	318.80613	-2029.85733	301.10893	176.0321	-2153.65402	225.25644	105.33059	-2224.12842	310.02478	73.99157	-2048.07434	53.18846	646.86226	-1698.27026	30.73501	533.11543	-1502.36832	80.74772	307.97865	-1466.51581	47.84353	138.82963	-1531.63269	110.20334	78.50436	-1577.71637	58.60232	108.48664	-1385.29526
66	2.177	262.95156	1479.20517	-1373.03284	98.33007	1450.84183	-1408.23486	298.98365	1524.56284	-1512.34573	111.22144	1495.54138	-1553.30292	286.29469	1261.09558	-1496.79428	140.16295	1262.57439	-1513.15231	308.20501	1358.66974	-1619.42245	149.44428	1358.17947	-1642.25113	245.43631	1213.33115	-1733.20999	208.258	1187.41364	-1491.06735	204.59887	1083.90671	-1509.87427	407.45586	1292.23083	-1508.67157	465.71865	1117.1299	-1492.96722	478.55289	975.21866	-1455.10391	418.90636	852.29973	-1405.08667	252.55102	792.96295	-1346.06339	316.87868	734.43878	-1350.36163	271.47142	742.52739	-1296.26251	32.44124	1320.14343	-1579.43909	-61.15821	1161.88232	-1662.09335	-110.78638	1051.64734	-1734.24454	-131.73812	954.48616	-1770.61172	-83.64798	761.05888	-1733.78525	-142.52727	773.23814	-1797.34863	-147.43237	722.59514	-1755.35095	331.71329	881.66908	-1633.36594	99.12398	897.17796	-1608.20908	274.23265	941.64063	-1826.8074	99.49148	936.15234	-1794.57672	315.67707	696.23703	-1900.31601	336.56155	493.65612	-1947.78885	317.26088	318.84104	-2008.45825	306.12505	184.57069	-2147.63062	230.07189	122.48376	-2219.44809	312.0681	74.21439	-2047.229	50.02702	639.88308	-1647.7301	27.08028	530.57487	-1449.15314	74.57548	305.85226	-1407.15027	39.06654	134.63217	-1464.64279	99.81456	71.95156	-1510.87143	50.94126	107.99424	-1317.74979
67	2.21	243.55078	1470.90698	-1313.90594	80.58599	1449.83353	-1360.32425	290.80215	1515.58731	-1450.31967	104.92271	1494.6701	-1504.15497	275.03897	1257.90428	-1440.91766	128.84729	1257.44652	-1457.78778	296.2582	1355.40497	-1564.24286	138.34918	1352.13455	-1587.49451	236.87048	1208.83102	-1678.004	198.44778	1182.77939	-1435.39871	196.16589	1079.2765	-1454.13666	396.81171	1291.28937	-1453.70605	461.5115	1117.71286	-1440.71884	481.08124	977.29279	-1404.19708	421.618	854.06876	-1354.93134	253.5824	792.14432	-1303.69812	319.89624	735.71892	-1302.91595	270.53482	743.28278	-1252.43446	21.68073	1314.44046	-1525.4245	-74.60941	1159.94553	-1610.05356	-126.91634	1052.65945	-1684.50867	-146.98848	952.48016	-1718.42041	-94.00419	761.46652	-1674.51584	-153.75917	770.29373	-1737.80716	-157.89812	721.61995	-1693.22586	329.179	875.49118	-1580.3009	97.7236	895.94284	-1553.02505	270.00046	933.82751	-1772.46552	95.18992	935.98473	-1738.80447	311.36145	691.94351	-1847.2641	338.69289	490.93781	-1898.73032	319.39014	320.85167	-1974.55872	308.39039	203.05174	-2125.20874	230.96344	149.78289	-2203.80051	312.77054	73.78333	-2043.4639	41.6356	637.97234	-1596.17935	26.0393	517.26734	-1405.56946	74.51414	289.17944	-1372.15103	35.65352	119.98725	-1436.14807	95.56696	67.04799	-1489.58618	50.33908	80.492	-1291.28067
68	2.243	222.03398	1474.54834	-1253.27118	62.51702	1460.86426	-1310.15305	280.20649	1516.22528	-1386.33453	97.97931	1503.65814	-1451.87027	263.89488	1265.01167	-1379.78058	117.4952	1259.78134	-1397.85904	282.9314	1361.7276	-1504.94949	125.40226	1353.87955	-1527.87872	227.85925	1212.65472	-1617.54425	188.85807	1187.40852	-1374.25491	188.43176	1083.78342	-1391.61102	386.39725	1301.24863	-1394.84009	457.1331	1128.64799	-1388.29437	482.75352	987.40608	-1359.44366	429.05495	859.3055	-1316.71661	264.51778	787.29485	-1270.23956	333.44368	734.88022	-1269.3869	282.93354	738.27393	-1219.42688	9.75607	1314.38843	-1465.89859	-87.67215	1160.53841	-1550.33768	-140.64711	1053.83377	-1625.74509	-159.28437	952.2171	-1657.061	-103.83671	764.2453	-1604.3895	-161.42237	769.0432	-1669.95865	-166.52338	722.51762	-1623.49655	321.07449	876.93787	-1519.54407	91.20014	904.20853	-1494.7728	265.16844	932.09778	-1711.90689	89.81708	943.16223	-1681.15524	306.57906	687.19963	-1780.27939	341.79951	485.597	-1824.30664	321.48514	325.36613	-1920.39337	303.06116	227.64208	-2084.63577	221.31166	188.36618	-2161.92398	308.50872	74.04402	-2032.3735	38.46257	637.87544	-1546.82693	24.31286	509.92367	-1361.07422	74.0985	282.30263	-1348.52844	38.52373	125.13708	-1435.9053	97.00775	69.87621	-1485.95795	50.67645	68.52136	-1288.14819
